<svg width="24" height="24" viewBox="0 0 24 24" fill="none" xmlns="http://www.w3.org/2000/svg">
<path d="M3.72418 5.2614L0 1.59864L1.62495 0L5.34799 3.66389H22.8515C23.0305 3.66388 23.2071 3.70503 23.367 3.78406C23.527 3.86309 23.6659 3.97782 23.7728 4.11907C23.8797 4.26033 23.9515 4.42422 23.9826 4.59764C24.0136 4.77107 24.0031 4.94923 23.9517 5.11792L21.1956 14.1562C21.1247 14.389 20.9793 14.5931 20.7812 14.7383C20.583 14.8834 20.3425 14.9617 20.0954 14.9617H6.02094V17.2213H18.6531V19.4809H4.87256C4.56799 19.4809 4.2759 19.3618 4.06054 19.15C3.84517 18.9381 3.72418 18.6507 3.72418 18.3511V5.2614ZM6.02094 5.92346V12.7022H19.241L21.3081 5.92346H6.02094ZM5.44675 24C4.9899 24 4.55176 23.8215 4.22871 23.5036C3.90567 23.1858 3.72418 22.7548 3.72418 22.3053C3.72418 21.8559 3.90567 21.4248 4.22871 21.107C4.55176 20.7892 4.9899 20.6106 5.44675 20.6106C5.9036 20.6106 6.34174 20.7892 6.66479 21.107C6.98783 21.4248 7.16931 21.8559 7.16931 22.3053C7.16931 22.7548 6.98783 23.1858 6.66479 23.5036C6.34174 23.8215 5.9036 24 5.44675 24ZM19.2273 24C18.7704 24 18.3323 23.8215 18.0092 23.5036C17.6862 23.1858 17.5047 22.7548 17.5047 22.3053C17.5047 21.8559 17.6862 21.4248 18.0092 21.107C18.3323 20.7892 18.7704 20.6106 19.2273 20.6106C19.6841 20.6106 20.1223 20.7892 20.4453 21.107C20.7683 21.4248 20.9498 21.8559 20.9498 22.3053C20.9498 22.7548 20.7683 23.1858 20.4453 23.5036C20.1223 23.8215 19.6841 24 19.2273 24Z" fill="#838383"/>
</svg>
