<svg width="22" height="21" viewBox="0 0 22 21" fill="none" xmlns="http://www.w3.org/2000/svg">
<path d="M3.41384 4.75976L0 1.6605L1.48954 0.3078L4.90232 3.40801H20.9472C21.1113 3.408 21.2731 3.44283 21.4198 3.5097C21.5664 3.57657 21.6938 3.67365 21.7917 3.79317C21.8897 3.9127 21.9556 4.05137 21.984 4.19811C22.0125 4.34486 22.0028 4.49561 21.9557 4.63835L19.4293 12.2861C19.3643 12.4831 19.2311 12.6559 19.0494 12.7786C18.8677 12.9014 18.6473 12.9677 18.4208 12.9677H5.51919V14.8797H17.0987V16.7916H4.46651C4.18733 16.7916 3.91957 16.6909 3.72216 16.5116C3.52474 16.3323 3.41384 16.0892 3.41384 15.8356V4.75976ZM5.51919 5.31996V11.0558H17.6376L19.5324 5.31996H5.51919ZM4.99285 20.6155C4.57407 20.6155 4.17244 20.4644 3.87632 20.1955C3.5802 19.9266 3.41384 19.5618 3.41384 19.1815C3.41384 18.8012 3.5802 18.4365 3.87632 18.1676C4.17244 17.8987 4.57407 17.7476 4.99285 17.7476C5.41163 17.7476 5.81326 17.8987 6.10939 18.1676C6.40551 18.4365 6.57187 18.8012 6.57187 19.1815C6.57187 19.5618 6.40551 19.9266 6.10939 20.1955C5.81326 20.4644 5.41163 20.6155 4.99285 20.6155ZM17.625 20.6155C17.2062 20.6155 16.8046 20.4644 16.5085 20.1955C16.2123 19.9266 16.046 19.5618 16.046 19.1815C16.046 18.8012 16.2123 18.4365 16.5085 18.1676C16.8046 17.8987 17.2062 17.7476 17.625 17.7476C18.0438 17.7476 18.4454 17.8987 18.7415 18.1676C19.0376 18.4365 19.204 18.8012 19.204 19.1815C19.204 19.5618 19.0376 19.9266 18.7415 20.1955C18.4454 20.4644 18.0438 20.6155 17.625 20.6155Z" fill="white"/>
</svg>
