<svg width="15" height="14" viewBox="0 0 15 14" fill="none" xmlns="http://www.w3.org/2000/svg">
<path d="M7.50061 1.15801C9.26233 -0.439291 11.9848 -0.386275 13.682 1.33069C15.3785 3.04841 15.437 5.78403 13.859 7.5684L7.49911 14L1.14073 7.5684C-0.437237 5.78403 -0.377988 3.04386 1.31773 1.33069C3.01645 -0.384003 5.73365 -0.441563 7.50061 1.15801ZM12.62 2.40085C11.495 1.26328 9.68007 1.21708 8.50259 2.28498L7.50136 3.19231L6.49938 2.28573C5.31816 1.21632 3.50694 1.26328 2.37896 2.40237C1.26148 3.53085 1.20523 5.33718 2.23496 6.5308L7.49986 11.8559L12.7648 6.53156C13.7952 5.33718 13.739 3.53312 12.62 2.40085Z" fill="#101010"/>
</svg>
