<svg width="70" height="65" viewBox="0 0 70 65" fill="none" xmlns="http://www.w3.org/2000/svg">
<path d="M34.5312 22.75C31.7838 22.75 29.1488 23.7772 27.2061 25.6057C25.2633 27.4342 24.1719 29.9141 24.1719 32.5C24.1719 35.0859 25.2633 37.5658 27.2061 39.3943C29.1488 41.2228 31.7838 42.25 34.5312 42.25C37.2787 42.25 39.9137 41.2228 41.8564 39.3943C43.7992 37.5658 44.8906 35.0859 44.8906 32.5C44.8906 29.9141 43.7992 27.4342 41.8564 25.6057C39.9137 23.7772 37.2787 22.75 34.5312 22.75ZM34.5312 16.25C39.1104 16.25 43.502 17.962 46.7399 21.0095C49.9778 24.057 51.7969 28.1902 51.7969 32.5C51.7969 36.8098 49.9778 40.943 46.7399 43.9905C43.502 47.038 39.1104 48.75 34.5312 48.75C29.9521 48.75 25.5605 47.038 22.3226 43.9905C19.0847 40.943 17.2656 36.8098 17.2656 32.5C17.2656 28.1902 19.0847 24.057 22.3226 21.0095C25.5605 17.962 29.9521 16.25 34.5312 16.25ZM56.9766 15.4375C56.9766 16.5149 56.5218 17.5483 55.7123 18.3101C54.9028 19.072 53.8049 19.5 52.6602 19.5C51.5154 19.5 50.4175 19.072 49.608 18.3101C48.7985 17.5483 48.3438 16.5149 48.3438 15.4375C48.3438 14.3601 48.7985 13.3267 49.608 12.5649C50.4175 11.803 51.5154 11.375 52.6602 11.375C53.8049 11.375 54.9028 11.803 55.7123 12.5649C56.5218 13.3267 56.9766 14.3601 56.9766 15.4375ZM34.5312 6.5C25.9882 6.5 24.5932 6.52275 20.6186 6.6885C17.9114 6.80875 16.095 7.15 14.4099 7.7675C12.9112 8.3135 11.8304 8.96675 10.6805 10.0522C9.59971 11.035 8.7687 12.2349 8.24952 13.5622C7.59342 15.1547 7.23084 16.861 7.10653 19.4058C6.92697 22.9937 6.90625 24.2482 6.90625 32.5C6.90625 40.5405 6.93042 41.8535 7.10653 45.5942C7.2343 48.139 7.59687 49.8517 8.24952 51.4345C8.83655 52.8483 9.52717 53.8655 10.6736 54.9445C11.8373 56.0365 12.9181 56.6897 14.403 57.2292C16.1088 57.85 17.9252 58.1945 20.6186 58.3115C24.4309 58.4805 25.7638 58.5 34.5312 58.5C43.0743 58.5 44.4693 58.4772 48.4439 58.3115C51.1442 58.1912 52.964 57.85 54.6492 57.2357C56.1444 56.6865 57.2321 56.0333 58.3785 54.9543C59.5422 53.859 60.2363 52.8418 60.8095 51.4443C61.4656 49.842 61.8317 48.1292 61.956 45.5942C62.1355 42.0062 62.1562 40.7518 62.1562 32.5C62.1562 24.4595 62.1321 23.1465 61.956 19.4058C61.8282 16.8643 61.4656 15.1482 60.8095 13.5622C60.2891 12.2363 59.4596 11.0369 58.382 10.0522C57.3382 9.0345 56.0632 8.25229 54.6526 7.76425C52.9606 7.14675 51.1442 6.8055 48.4439 6.6885C44.6316 6.5195 43.2987 6.5 34.5312 6.5ZM34.5312 0C43.9134 0 45.084 0.0324998 48.765 0.195C52.4426 0.3575 54.9461 0.90025 57.1492 1.70625C59.4283 2.53175 61.3482 3.64975 63.2682 5.4535C65.024 7.07816 66.3827 9.04341 67.2496 11.2125C68.1025 13.2827 68.6827 15.6422 68.8553 19.1035C69.0176 22.568 69.0625 23.6698 69.0625 32.5C69.0625 41.3302 69.028 42.432 68.8553 45.8965C68.6827 49.3577 68.1025 51.714 67.2496 53.7875C66.3852 55.9578 65.0262 57.9235 63.2682 59.5465C61.5415 61.1985 59.4535 62.4772 57.1492 63.2938C54.9496 64.0965 52.4426 64.6425 48.765 64.805C45.084 64.9577 43.9134 65 34.5312 65C25.1491 65 23.9785 64.9675 20.2975 64.805C16.6199 64.6425 14.1164 64.0965 11.9133 63.2938C9.60772 62.4795 7.51927 61.2006 5.79434 59.5465C4.03811 57.9221 2.67939 55.9568 1.81289 53.7875C0.956516 51.7172 0.379844 49.3577 0.207187 45.8965C0.0448904 42.432 0 41.3302 0 32.5C0 23.6698 0.034531 22.568 0.207187 19.1035C0.379844 15.639 0.956516 13.286 1.81289 11.2125C2.67699 9.04208 4.03603 7.07629 5.79434 5.4535C7.51977 3.8 9.60807 2.52112 11.9133 1.70625C14.1164 0.90025 16.6164 0.3575 20.2975 0.195C23.9785 0.0422498 25.1491 0 34.5312 0Z" fill="#1C1C27"/>
</svg>
