<svg width="24" height="23" viewBox="0 0 24 23" fill="none" xmlns="http://www.w3.org/2000/svg">
<path d="M12.001 1.83474C14.8197 -0.696011 19.1756 -0.612013 21.8912 2.10834C24.6055 4.82989 24.6991 9.1642 22.1744 11.9914L11.9986 22.1816L1.82517 11.9914C-0.69958 9.1642 -0.604781 4.82269 2.10837 2.10834C4.82632 -0.608413 9.17384 -0.699611 12.001 1.83474ZM20.192 3.8039C18.3921 2.00154 15.4881 1.92834 13.6042 3.62031L12.0022 5.05788L10.399 3.62151C8.50905 1.92714 5.6111 2.00154 3.80634 3.8063C2.01837 5.59427 1.92837 8.45622 3.57594 10.3474L11.9998 18.7844L20.4236 10.3486C22.0724 8.45622 21.9824 5.59787 20.192 3.8039Z" fill="#1C1C27"/>
</svg>
