<svg width="25" height="25" viewBox="0 0 25 25" fill="none" xmlns="http://www.w3.org/2000/svg">
<path d="M24.8875 19.9275L24.7631 19.5525C24.4684 18.6764 23.5023 17.7627 22.6149 17.5219L19.3305 16.6245C18.4398 16.3821 17.1692 16.708 16.5176 17.3598L15.3289 18.5487C11.0089 17.3811 7.62132 13.9929 6.45556 9.67288L7.64427 8.48396C8.29594 7.83216 8.62173 6.56306 8.37941 5.6722L7.48379 2.38551C7.24147 1.49628 6.3262 0.530117 5.4519 0.238597L5.07697 0.112514C4.201 -0.179006 2.95173 0.115816 2.3001 0.767557L0.521965 2.54765C0.204302 2.86369 0.00127589 3.76765 0.00127589 3.77095C-0.0609155 9.41742 2.15272 14.8575 6.14607 18.8517C10.1296 22.8359 15.5483 25.0467 21.1774 24.9993C21.2069 24.9993 22.1369 24.7994 22.4545 24.4834L24.2326 22.7049C24.8842 22.0532 25.1789 20.8037 24.8875 19.9275Z" fill="black"/>
</svg>
