<svg width="69" height="65" viewBox="0 0 69 65" fill="none" xmlns="http://www.w3.org/2000/svg">
<path d="M34.5 58.5C41.7383 58.5 48.6801 55.7607 53.7983 50.8848C58.9165 46.0088 61.7919 39.3956 61.7919 32.5C61.7919 25.6044 58.9165 18.9912 53.7983 14.1152C48.6801 9.23928 41.7383 6.5 34.5 6.5C27.2617 6.5 20.3199 9.23928 15.2017 14.1152C10.0835 18.9912 7.20807 25.6044 7.20807 32.5C7.20807 39.3956 10.0835 46.0088 15.2017 50.8848C20.3199 55.7607 27.2617 58.5 34.5 58.5ZM34.5 65C15.6583 65 0.385086 50.4497 0.385086 32.5C0.385086 14.5503 15.6583 0 34.5 0C53.3417 0 68.6149 14.5503 68.6149 32.5C68.6149 50.4497 53.3417 65 34.5 65ZM23.8903 36.3025L15.3684 33.7707C13.5261 33.2345 13.5159 32.0255 15.7811 31.1577L48.9852 18.9377C50.9127 18.1903 52.0044 19.136 51.3801 21.5052L45.7272 46.9202C45.3315 48.7305 44.1886 49.1628 42.6023 48.3275L33.8996 42.1915L29.8433 45.9225C29.4271 46.306 29.0894 46.6343 28.448 46.7155C27.8101 46.8 27.2847 46.618 26.8992 45.6105L23.9312 36.2798L23.8903 36.3057V36.3025Z" fill="#1C1C27"/>
</svg>
