<svg width="94" height="60" viewBox="0 0 94 60" fill="none" xmlns="http://www.w3.org/2000/svg">
<path d="M0.0124207 8.25444C0.0124207 5.23669 1.80773 3.60947 5.39835 3.37278L19.2346 3.46154C20.1632 3.46154 20.7823 3.90533 21.0918 4.7929C22.5157 9.23077 24.1098 13.0621 25.8742 16.287C27.6385 19.5118 29.9446 23.2249 32.7923 27.426C33.0399 27.9586 33.4423 28.2249 33.9995 28.2249C34.4328 28.2249 34.7733 28.0178 35.021 27.6035L35.2995 26.6272L35.3924 11.2722C35.3924 10.2071 35.1293 9.49704 34.6031 9.14201C34.0769 8.78698 33.1018 8.52071 31.678 8.34319C30.5636 8.16568 30.0065 7.51479 30.0065 6.39053C30.0065 6.15385 30.0374 5.97633 30.0993 5.85799C31.3994 2.01183 35.1138 0.0887574 41.2426 0.0887574L46.4428 0C48.7953 0 50.7454 0.56213 52.2931 1.68639C53.8407 2.81065 54.6146 4.5858 54.6146 7.01183V27.1598C55.0479 27.4556 55.4503 27.6035 55.8218 27.6035C56.7504 27.6035 57.5552 27.071 58.2362 26.0059C65.046 16.8935 68.7294 10.7988 69.2866 7.72189C69.2866 7.66272 69.3485 7.51479 69.4723 7.27811C69.9057 6.39053 70.6176 5.6213 71.6081 4.97041C72.5986 4.31953 73.4653 3.87574 74.2082 3.63905C74.4559 3.52071 74.7344 3.46154 75.044 3.46154H89.4374L90.366 3.5503C91.6041 3.5503 92.5637 4.11243 93.2447 5.23669C93.4923 5.59172 93.6626 5.97633 93.7554 6.39053C93.8483 6.80473 93.9102 7.21893 93.9411 7.63314C93.9721 8.04734 93.9876 8.28402 93.9876 8.34319V8.9645C93.5542 11.3905 92.4554 13.9793 90.691 16.7308C88.9267 19.4822 86.6825 22.4556 83.9586 25.6509C81.2347 28.8462 79.5322 30.9467 78.8513 31.9527C78.2941 32.6627 78.0155 33.3136 78.0155 33.9053C78.0155 34.3787 78.2631 34.9112 78.7584 35.503L92.3161 51.8343C93.059 52.7811 93.4304 53.8166 93.4304 54.9408C93.4304 56.3018 92.8732 57.426 91.7589 58.3136C90.6446 59.2012 89.3136 59.7041 87.7659 59.8225L86.1873 59.9112H72.0724C72.0105 59.9112 71.8867 59.926 71.701 59.9556C71.5153 59.9852 71.3914 60 71.3295 60C69.9676 60 68.6985 59.4379 67.5222 58.3136C67.0889 57.8402 64.1793 54.3491 58.7933 47.8402C58.4838 47.426 58.0504 47.0414 57.4933 46.6864C57.2456 47.6331 56.9206 48.9941 56.5182 50.7692C56.1158 52.5444 55.8218 53.8166 55.6361 54.5858L55.3575 56.0947C54.7384 58.1657 53.4383 59.4083 51.4573 59.8225L50.1573 59.9112H41.0569C35.9186 59.9112 30.7958 57.6627 25.6884 53.1657C20.5811 48.6686 15.9845 42.855 11.8986 35.7249C7.81273 28.5947 4.00544 20.2959 0.476725 10.8284C0.167189 10.0592 0.0124207 9.20118 0.0124207 8.25444ZM55.8218 31.2426C54.5217 31.2426 53.3455 30.9024 52.2931 30.2219C51.2406 29.5414 50.7144 28.6095 50.7144 27.426V7.01183C50.7144 5.8284 50.4049 4.98521 49.7858 4.48225C49.1668 3.97929 48.0834 3.72781 46.5357 3.72781L41.2426 3.90533C38.5806 3.90533 36.5686 4.34911 35.2067 5.23669C37.9306 6.47929 39.2925 8.49112 39.2925 11.2722V26.8935C39.1687 28.3728 38.5497 29.6006 37.4353 30.5769C36.321 31.5533 35.0829 32.0414 33.7209 32.0414C31.8637 32.0414 30.4398 31.1834 29.4493 29.4675C24.6205 22.4852 21.0299 15.858 18.6774 9.5858L17.8417 7.27811L5.49121 7.18935C4.68642 7.18935 4.23759 7.23373 4.14473 7.32248C4.05187 7.41124 4.00544 7.66272 4.00544 8.07692C4.00544 8.60947 4.06734 9.1716 4.19116 9.76331L6.14124 14.7337C11.3414 27.574 16.9905 37.6923 23.0883 45.0888C29.1862 52.4852 35.1757 56.1834 41.0569 56.1834H50.343C50.7144 56.1834 50.993 56.0799 51.1787 55.8728C51.3645 55.6657 51.5192 55.2663 51.643 54.6746L51.8288 53.787L53.5931 45.9763C54.0884 44.9112 54.5217 44.2012 54.8932 43.8462C55.5741 43.1953 56.3789 42.8698 57.3075 42.8698C58.7933 42.8698 60.3101 43.7278 61.8577 45.4438L69.7509 55.0296C70.2462 55.7988 70.7724 56.1834 71.3295 56.1834H86.6516C88.5088 56.1834 89.4374 55.7396 89.4374 54.8521C89.4374 54.5562 89.3445 54.2604 89.1588 53.9645L75.694 37.8994C74.6416 36.6568 74.1154 35.3254 74.1154 33.9053C74.1154 32.4852 74.6106 31.1243 75.6011 29.8225C76.4059 28.6391 77.9691 26.6716 80.2906 23.9201C82.6121 21.1686 84.6396 18.5947 86.373 16.1982C88.1064 13.8018 89.2517 11.6272 89.8088 9.67456L90.0874 8.52071C90.0255 8.40237 89.9946 8.21006 89.9946 7.94379C89.9946 7.67751 89.9636 7.45562 89.9017 7.27811H75.3225C74.3939 7.63314 73.6511 8.16568 73.0939 8.87574L72.5367 10.5621C70.989 14.645 66.9341 20.9467 60.372 29.4675C59.0719 30.6509 57.5552 31.2426 55.8218 31.2426Z" fill="#1C1C27"/>
</svg>
