<svg width="70" height="65" viewBox="0 0 70 65" fill="none" xmlns="http://www.w3.org/2000/svg">
<path d="M18.7326 53.6055L21.218 54.9802C25.4092 57.2944 30.1762 58.5094 35.0281 58.5C40.4597 58.5 45.7693 56.9751 50.2855 54.1182C54.8017 51.2613 58.3216 47.2006 60.4002 42.4497C62.4787 37.6989 63.0226 32.4711 61.9629 27.4276C60.9033 22.3841 58.2878 17.7514 54.4471 14.1152C50.6064 10.4791 45.713 8.00279 40.3858 6.99958C35.0586 5.99636 29.5368 6.51125 24.5187 8.47913C19.5006 10.447 15.2115 13.7795 12.1939 18.0552C9.17631 22.3308 7.56566 27.3577 7.56566 32.5C7.56566 37.167 8.85983 41.6422 11.2868 45.578L12.7355 47.931L10.4939 55.7342L18.7326 53.6055ZM0.713774 65L5.35493 48.854C2.29677 43.8908 0.690074 38.2459 0.700043 32.5C0.700043 14.5502 16.0687 0 35.0281 0C53.9876 0 69.3562 14.5502 69.3562 32.5C69.3562 50.4497 53.9876 65 35.0281 65C28.9616 65.0092 23.0018 63.4893 17.7611 60.5962L0.713774 65ZM22.6391 17.251C23.0991 17.2185 23.5626 17.2185 24.0226 17.238C24.2079 17.251 24.3933 17.2705 24.5787 17.29C25.1245 17.3485 25.7252 17.6637 25.9278 18.0992C26.9507 20.2962 27.9463 22.5095 28.9074 24.7292C29.1203 25.2232 28.9933 25.857 28.5882 26.4745C28.3096 26.892 28.0083 27.2956 27.6854 27.6835C27.2975 28.1547 26.4633 29.0192 26.4633 29.0192C26.4633 29.0192 26.1234 29.4027 26.2539 29.8805C26.3019 30.0625 26.4599 30.3257 26.604 30.5467L26.8066 30.8555C27.6854 32.2432 28.8663 33.6505 30.308 34.9765C30.72 35.3535 31.1216 35.7402 31.5541 36.101C33.1607 37.4432 34.9801 38.5385 36.9437 39.351L36.9608 39.3575C37.2526 39.4777 37.4002 39.5427 37.8259 39.715C38.0387 39.7995 38.2584 39.8742 38.4816 39.9295C38.7121 39.9851 38.955 39.9746 39.1793 39.8994C39.4035 39.8242 39.5992 39.6876 39.7414 39.507C42.2267 36.6567 42.4533 36.4715 42.4739 36.4715V36.478C42.6466 36.3255 42.8517 36.2098 43.0755 36.1386C43.2993 36.0674 43.5366 36.0424 43.7715 36.0652C43.9775 36.0782 44.1869 36.114 44.3791 36.1952C46.2019 36.985 49.1851 38.2167 49.1851 38.2167L51.1829 39.065C51.5194 39.2177 51.8249 39.5785 51.8352 39.9262C51.8489 40.144 51.8695 40.495 51.7906 41.1385C51.6807 41.9802 51.4129 42.991 51.1452 43.5207C50.9618 43.8822 50.7184 44.2136 50.4243 44.5022C50.0779 44.8465 49.6987 45.1599 49.2915 45.4382C49.1506 45.5385 49.0075 45.636 48.8624 45.7307C48.4354 45.9872 47.9967 46.2257 47.5476 46.4457C46.6638 46.8902 45.6876 47.1454 44.6881 47.1932C44.053 47.2257 43.4179 47.2712 42.7794 47.2387C42.752 47.2387 40.8296 46.956 40.8296 46.956C35.949 45.7406 31.4353 43.4637 27.6476 40.3065C26.8718 39.6597 26.1543 38.9642 25.4197 38.272C22.3645 35.3957 20.0577 32.292 18.6571 29.3605C17.9402 27.9217 17.553 26.3555 17.5208 24.765C17.5067 22.7918 18.188 20.8704 19.4569 19.305C19.7075 18.9995 19.9444 18.681 20.3529 18.3137C20.7888 17.9237 21.0635 17.7157 21.3621 17.5727C21.7592 17.3843 22.1924 17.2738 22.6357 17.2477L22.6391 17.251Z" fill="#1C1C27"/>
</svg>
